<svg viewBox="26.58 234.43 788.74 126.42" xmlns="http://www.w3.org/2000/svg"><g><path d="m766.55 294.26c0 17.52 12.81 26.64 26.53 26.64 11.06 0 17.52-5.33 22.03-12.19l-3.18-2.87c-4 5.84-9.42 8.81-15.78 8.81-11.06 0-16.7-9.12-16.7-21.92 0-.82 0-1.54.1-2.46h35.75c-.72-13.73-10.25-22.54-23.15-22.54-15.37 0-25.61 11.47-25.61 26.53m30.44-8.51h-16.9c1.43-7.58 5.53-12.91 11.99-12.91 5.84 0 10.45 3.79 10.45 10.76 0 2.05-.51 2.15-5.53 2.15m-71.52 23.36v-27.56c0-5.84-.72-7.99-6.56-7.99l-5.22.1v-4.61l23.97-.31.41 9.02c1.13-6.25 7.89-9.94 14.65-9.94 7.27 0 11.27 4.51 11.27 9.12s-2.46 7.68-6.25 7.68c-3.38 0-5.84-2.36-5.84-5.23s-1.33-4.81-4.3-4.81c-3.38 0-9.53 3.89-9.53 17.62v17.72c0 4.92 3.28 6.25 10.04 6.25v4.1s-11.06-.31-15.78-.31c-7.48 0-16.7.31-16.7.31v-4.1c6.86 0 9.83-.72 9.83-7.07m-13.82 11.18v-4.1c-6.76 0-8.09-.82-8.71-3.18-.41-1.23-.61-5.84-.61-21.51 0-18.65 0-20.69.1-22.95h-2.25l-20.49.31v4.61h5.74c2.87 0 3.89 1.43 4.2 5.64.1 2.56.1 7.38.1 14.44 0 12.29-.31 17.93-.72 19.57-.51 2.15-1.95 3.07-8.81 3.07v4.1s8.2-.31 13.63-.31c6.76 0 17.83.31 17.83.31m-16.71-68.74c3.89 0 7.07-3.18 7.07-7.27s-3.18-7.07-7.07-7.07c-4.1 0-7.27 3.18-7.27 7.07 0 4.1 3.18 7.27 7.27 7.27m-40.98 43.64v11.06c-4.92 6.15-8.4 7.07-11.47 7.07-3.79 0-5.94-3.48-5.94-6.25 0-6.56 3.48-11.68 17.42-11.88m22.63 20.69-1.95-2.87c-.92.92-2.56 2.25-4.82 2.25s-3.69-1.95-3.69-5.53l.1-21.92c.1-14.04-7.79-20.08-22.03-20.08-9.63 0-19.77 4.41-19.77 11.47 0 3.38 2.77 6.25 6.25 6.25 3.18 0 5.94-2.15 5.94-6.15 0-4.61 3.89-6.45 8.2-6.45 7.38 0 9.12 3.59 9.12 17.72-16.8-.21-30.32 5.53-30.32 18.13 0 7.79 7.79 12.29 14.03 12.29s11.27-2.36 16.6-8.61c.72 5.12 6.25 8.61 11.88 8.61 3.38 0 7.68-2.15 10.45-5.12m-59.51-2.44-1.54-3.18c-3.48 1.95-6.97 3.38-10.24 3.38-4.1 0-6.97-1.33-7.99-4.1-1.03-2.56-1.03-6.86-1.03-12.6v-20.49h20.18v-7.58h-20.18l.31-14.24-21.82 21.82h8.81l-.1 29.2c0 10.25 4.1 15.37 14.96 15.37 5.43 0 11.06-2.56 18.65-7.58m-43.86 6.55v-4.1c-6.35 0-8.71-.51-9.53-4.81-.31-1.95-.41-4.51-.41-31.86l.1-44.77-22.74.1v4.61h6.86c3.07 0 3.48 1.33 3.69 3.89.31 3.69.31 12.81.31 36.16 0 27.25.1 30.32-.51 32.48-1.23 3.79-4.51 4.2-9.73 4.2v4.1l16.9-.2zm-68.23-46.1c11.78 0 18.85 13.01 18.85 24.28s-6.25 16.7-13.93 16.7c-11.78 0-18.95-12.91-18.95-24.18s6.35-16.8 14.04-16.8m32.06 20.28c0-15.57-13.52-26.43-29.61-26.43s-29.61 10.86-29.61 26.43 13.52 26.84 29.61 26.84 29.61-10.96 29.61-26.84m-44.87-56.14h-32.68v4.41c9.94.61 11.27 5.84 7.48 14.34l-18.65 42.11-18.85-41.9c-3.38-7.48-2.87-14.55 8.81-14.55v-4.41h-37.6v4.41c8.61.51 10.55 4.51 13.52 10.96l30.73 67.51h2.05l32.07-66.49c3.89-7.99 5.02-11.17 13.11-11.99v-4.41zm-150.8 54.3c0-6.76 3.69-15.06 9.63-19.16 0 0 11.27 16.08 20.18 27.25 2.87 3.59 5.33 7.17 7.99 10.35-2.05.82-8.81 3.59-16.8 3.59-13.32 0-21-7.89-21-22.03m-14.25 2.77c0 15.57 15.16 25.92 33.5 25.92 11.88 0 19.36-5.02 21.62-6.76 4.2 4.1 9.02 6.76 16.29 6.76s14.96-8.3 14.96-8.3l-2.25-2.87c-2.77 3.07-5.64 4.41-7.99 4.41-4.51 0-8.91-3.38-13.42-8.4 1.64-2.05 5.74-7.68 8.61-16.7 1.43-4.61 2.87-11.27 4.92-13.22 1.84-2.05 4.41-2.66 10.55-2.66v-4.61l-19.26.2c-7.68 0-16.49-.2-16.49-.2v4.61c10.86 0 12.19 2.05 12.19 8.4 0 7.99-3.07 17.01-4.3 19.67l-5.12-6.56c-8.61-11.27-19.57-26.53-19.57-26.53 9.94-2.97 16.9-8.81 16.9-16.29 0-8.71-8.61-14.96-18.54-14.96-10.76 0-19.67 6.66-19.67 16.49 0 6.97 5.53 12.6 7.89 15.88-11.27 4.61-20.8 12.19-20.8 25.71m39.53-44.15c0 5.94-3.38 11.37-8.3 13.63 0 0-6.45-6.56-6.45-14.65 0-4.1 2.77-7.17 7.48-7.17 3.89 0 7.27 2.56 7.27 8.2m-90.36 88.4c0-6.15 2.77-11.06 6.45-13.52 2.25.51 4.61.92 7.07 1.33 12.7 2.15 18.24 5.12 18.24 14.14 0 9.53-5.12 14.86-14.14 14.86-12.09 0-17.62-7.68-17.62-16.8m40.37-65.06 5.53.1v-5.63c-11.58 0-19.77-.2-29.92-.2-11.99 0-22.23 7.48-22.23 18.75s8.3 18.03 17.21 18.54v.62c-2.87.72-16.7.31-16.7 9.73 0 4.51 2.77 6.76 7.58 8.4-6.66 2.66-13.83 7.58-13.83 16.49 0 11.47 11.37 19.77 26.84 19.77 16.8 0 28.48-8.81 28.48-23.97 0-10.86-6.76-18.75-22.44-20.69-10.65-1.43-15.47-.82-15.47-3.18s5.43-2.25 14.14-4.51c8.71-2.25 18.75-7.38 18.75-20.18 0-5.74-2.77-9.22-2.77-11.27s1.95-2.77 4.81-2.77m-26.01-.62c7.17 0 13.01 9.22 13.01 17.93 0 7.17-3.89 10.35-9.02 10.35-7.17 0-12.5-9.22-12.5-17.93 0-7.17 3.38-10.35 8.5-10.35m-28.36 46.62v-4.1c-6.76 0-8.09-.82-8.71-3.18-.41-1.23-.61-5.84-.61-21.51 0-18.65 0-20.69.1-22.95h-2.25l-20.49.31v4.61h5.74c2.87 0 3.89 1.43 4.2 5.64.1 2.56.1 7.38.1 14.44 0 12.29-.31 17.93-.72 19.57-.51 2.15-1.95 3.07-8.81 3.07v4.1s8.2-.31 13.63-.31c6.76 0 17.83.31 17.83.31m-16.71-68.74c3.89 0 7.07-3.18 7.07-7.27s-3.18-7.07-7.07-7.07c-4.1 0-7.27 3.18-7.27 7.07 0 4.1 3.18 7.27 7.27 7.27m-73.25 39.54c0-11.17 6.56-17.62 16.19-17.62 6.86 0 14.86 4.2 16.49 12.4l.2 18.34c-3.07 6.56-8.81 10.45-15.06 10.45-10.76 0-17.83-9.84-17.83-23.56m33 28.78h21.92v-4h-5.74c-2.15 0-3.38-.82-3.48-4.2-.2-6.66-.41-19.87-.41-34.83 0-18.13.2-42.31.2-42.31h-23.46v4.51l6.35.1c3.18 0 3.59 1.23 3.89 3.89.2 3.38.31 11.58.31 27.76v4.81c-4.51-4.92-10.35-7.89-18.34-7.89-14.96 0-26.74 11.58-26.74 26.43 0 17.11 11.88 26.84 26.84 26.84 8.81 0 14.55-3.59 18.65-8.61v7.48zm-71.72-24.69v11.06c-4.92 6.15-8.4 7.07-11.47 7.07-3.79 0-5.94-3.48-5.94-6.25 0-6.56 3.48-11.68 17.42-11.88m22.64 20.69-1.95-2.87c-.92.92-2.56 2.25-4.81 2.25s-3.69-1.95-3.69-5.53l.1-21.92c.1-14.04-7.79-20.08-22.03-20.08-9.63 0-19.77 4.41-19.77 11.47 0 3.38 2.77 6.25 6.25 6.25 3.18 0 5.94-2.15 5.94-6.15 0-4.61 3.89-6.45 8.2-6.45 7.38 0 9.12 3.59 9.12 17.72-16.8-.21-30.32 5.53-30.32 18.13 0 7.79 7.79 12.29 14.04 12.29s11.27-2.36 16.6-8.61c.72 5.12 6.25 8.61 11.88 8.61 3.38 0 7.68-2.15 10.45-5.12m-68.76-22.22c-3.07 15.57-8.61 18.54-28.99 19.06l-13.11.31 45.79-74.48-.2-.51h-60.24l-1.13 23.05h4.2c1.95-11.99 5.63-15.78 22.85-15.88l15.98-.1-46.1 74.38.51.51h63.11l1.84-26.33h-4.51z"/></g></svg>